<svg width="24" height="24" viewBox="0 0 24 24" fill="none" xmlns="http://www.w3.org/2000/svg">
<path fill-rule="evenodd" clip-rule="evenodd" d="M7.53586 4C7.90568 4 8.20548 4.29166 8.20548 4.65145V6.09996C10.7302 5.88122 13.2699 5.88122 15.7946 6.09996V4.65145C15.7946 4.29166 16.0944 4 16.4642 4C16.834 4 17.1338 4.29166 17.1338 4.65145V6.22921C18.4669 6.41258 19.52 7.43833 19.6983 8.74676L19.7755 9.31392C20.1006 11.6994 20.0725 14.1179 19.6922 16.4956C19.5038 17.6734 18.5202 18.5781 17.3008 18.6951L16.2356 18.7973C13.4187 19.0676 10.5813 19.0676 7.76436 18.7973L6.6992 18.6951C5.47982 18.5781 4.49623 17.6734 4.30783 16.4956C3.92752 14.1179 3.89945 11.6994 4.22447 9.31392L4.30175 8.74676C4.48003 7.43832 5.53317 6.41255 6.86623 6.2292V4.65145C6.86623 4.29166 7.16603 4 7.53586 4ZM7.93332 7.43341C10.6379 7.17394 13.3621 7.17394 16.0667 7.43341L16.8751 7.51097C17.649 7.58521 18.2684 8.16802 18.3706 8.91797L18.4479 9.48513C18.4749 9.68326 18.4993 9.88164 18.5212 10.0802H5.47883C5.50068 9.88164 5.52511 9.68326 5.55211 9.48513L5.62938 8.91797C5.73157 8.16802 6.35104 7.58521 7.1249 7.51097L7.93332 7.43341ZM5.37237 11.3831C5.28471 13.0231 5.37108 14.6692 5.63115 16.2952C5.72565 16.886 6.21901 17.3398 6.83064 17.3985L7.89579 17.5007C10.6253 17.7626 13.3747 17.7626 16.1042 17.5007L17.1694 17.3985C17.781 17.3398 18.2743 16.886 18.3688 16.2952C18.6289 14.6692 18.7153 13.0231 18.6276 11.3831H5.37237Z" fill="#2D2D27"/>
</svg>
