<svg width="24" height="24" viewBox="0 0 24 24" fill="none" xmlns="http://www.w3.org/2000/svg">
<path d="M18 19.9999C18.3183 19.9999 18.6235 19.8734 18.8486 19.6484C19.0736 19.4233 19.2 19.1181 19.2 18.7999C19.2 18.4816 19.0736 18.1764 18.8486 17.9513C18.6235 17.7263 18.3183 17.5999 18 17.5999C17.6818 17.5999 17.3766 17.7263 17.1515 17.9513C16.9265 18.1764 16.8 18.4816 16.8 18.7999C16.8 19.1181 16.9265 19.4233 17.1515 19.6484C17.3766 19.8734 17.6818 19.9999 18 19.9999ZM10 19.9999C10.3183 19.9999 10.6235 19.8734 10.8486 19.6484C11.0736 19.4233 11.2 19.1181 11.2 18.7999C11.2 18.4816 11.0736 18.1764 10.8486 17.9513C10.6235 17.7263 10.3183 17.5999 10 17.5999C9.68179 17.5999 9.37656 17.7263 9.15152 17.9513C8.92648 18.1764 8.80005 18.4816 8.80005 18.7999C8.80005 19.1181 8.92648 19.4233 9.15152 19.6484C9.37656 19.8734 9.68179 19.9999 10 19.9999Z" fill="#2D2D27" stroke="#2D2D27" stroke-width="1.2" stroke-linecap="round" stroke-linejoin="round"/>
<path d="M6.4 5.6H20L18.4 14.4M6.4 5.6L8 14.4H18.4M6.4 5.6C6.2664 5.0664 5.6 4 4 4M18.4 14.4H6.584C5.1568 14.4 4.4 15.0248 4.4 16C4.4 16.9752 5.1568 17.6 6.584 17.6H18" stroke="#2D2D27" stroke-width="1.2" stroke-linecap="round" stroke-linejoin="round"/>
</svg>
