<svg width="36" height="36" viewBox="0 0 36 36" fill="none" xmlns="http://www.w3.org/2000/svg">
<path d="M3.15918 24.2229V27.4699M4.23878 15.5696V10.1633C4.23878 8.96834 5.20712 8 6.4021 8H29.5806C30.7756 8 31.7439 8.96834 31.7439 10.1633V15.5696" stroke="black" stroke-linecap="round" stroke-linejoin="round"/>
<path d="M32.8276 24.2228V27.4699M32.2878 15.5696C30.7962 15.5696 29.5847 16.781 29.5847 18.2727V19.8962H6.40625V18.2727C6.40625 16.781 5.19479 15.5696 3.70313 15.5696C2.21146 15.5696 1 16.781 1 18.2727C1 19.5583 1.90654 20.6626 3.16332 20.9222V24.2228H32.8318V20.9222C34.2946 20.6255 35.2423 19.1957 34.9456 17.7329C34.6902 16.472 33.5817 15.5654 32.292 15.5654L32.2878 15.5696Z" stroke="black" stroke-linecap="round" stroke-linejoin="round"/>
</svg>
