<svg width="36" height="36" viewBox="0 0 36 36" fill="none" xmlns="http://www.w3.org/2000/svg">
<path d="M9.29956 25.2439V28.6953M10.4471 16.046V10.2995C10.4471 9.02929 11.4764 8 12.7466 8H24.244C25.5142 8 26.5435 9.02929 26.5435 10.2995V16.046" stroke="black" stroke-linecap="round" stroke-linejoin="round"/>
<path d="M27.6909 25.2438V28.6952M27.1172 16.0459C25.5316 16.0459 24.2439 17.3336 24.2439 18.9191V20.6448H12.7465V18.9191C12.7465 17.3336 11.4588 16.0459 9.87325 16.0459C8.28771 16.0459 7 17.3336 7 18.9191C7 20.2857 7.96359 21.4595 9.29948 21.7354V25.2438H27.6953V21.7354C29.2502 21.4201 30.2576 19.9002 29.9422 18.3454C29.6707 17.0051 28.4925 16.0415 27.1215 16.0415L27.1172 16.0459Z" stroke="black" stroke-linecap="round" stroke-linejoin="round"/>
</svg>
