<svg width="24" height="24" viewBox="0 0 24 24" fill="none" xmlns="http://www.w3.org/2000/svg">
<path fill-rule="evenodd" clip-rule="evenodd" d="M18.4174 6.13447L12.5 6L6.58258 6.13447C5.48607 6.15939 4.55765 6.95436 4.35939 8.03811C3.8802 10.6574 3.8802 13.3426 4.35939 15.9619C4.55765 17.0456 5.48607 17.8406 6.58258 17.8655L12.5 18L18.4174 17.8655C19.5139 17.8406 20.4424 17.0456 20.6406 15.9619C21.1198 13.3426 21.1198 10.6574 20.6406 8.03811C20.4424 6.95436 19.5139 6.15939 18.4174 6.13447ZM6.61052 7.3755L12.5 7.24166L18.3895 7.3755C18.9004 7.38711 19.333 7.75753 19.4254 8.2625C19.5516 8.95268 19.6426 9.6477 19.6984 10.3449H5.30164C5.35736 9.6477 5.44836 8.95268 5.57462 8.2625C5.667 7.75753 6.0996 7.38711 6.61052 7.3755ZM5.23559 12C5.23559 13.251 5.3486 14.502 5.57462 15.7375C5.667 16.2425 6.0996 16.6129 6.61052 16.6245L12.5 16.7583L18.3895 16.6245C18.9004 16.6129 19.333 16.2425 19.4254 15.7375C19.6514 14.502 19.7644 13.251 19.7644 12H5.23559Z" fill="#2D2D27"/>
</svg>
