<svg width="24" height="24" viewBox="0 0 24 24" fill="none" xmlns="http://www.w3.org/2000/svg">
<path d="M19.1296 2.21967C19.4225 2.51256 19.4225 2.98744 19.1296 3.28033L18.5791 3.83078C21.8681 7.66186 21.6981 13.4397 18.0689 17.0689C16.3559 18.7819 14.1643 19.7242 11.9246 19.8959V21.4246H13.6746C14.0888 21.4246 14.4246 21.7604 14.4246 22.1746C14.4246 22.5888 14.0888 22.9246 13.6746 22.9246H8.67462C8.26041 22.9246 7.92462 22.5888 7.92462 22.1746C7.92462 21.7604 8.26041 21.4246 8.67462 21.4246H10.4246V19.8959C8.41836 19.742 6.45056 18.9697 4.83078 17.5791L4.28033 18.1296C3.98744 18.4225 3.51256 18.4225 3.21967 18.1296C2.92678 17.8367 2.92678 17.3618 3.21967 17.0689L3.92678 16.3618C4.42221 15.8664 5.19208 15.8917 5.6744 16.3239C7.23636 17.7237 9.20384 18.424 11.1716 18.4246L11.1746 18.4246L11.1779 18.4246C13.2881 18.4237 15.3982 17.6183 17.0083 16.0083C20.1212 12.8953 20.2264 7.91315 17.3239 4.67439C16.8917 4.19208 16.8664 3.42221 17.3618 2.92678L18.0689 2.21967C18.3618 1.92678 18.8367 1.92678 19.1296 2.21967Z" fill="#2D2D27"/>
<path fill-rule="evenodd" clip-rule="evenodd" d="M4.42462 10.1746C4.42462 6.4467 7.4467 3.42462 11.1746 3.42462C14.9025 3.42462 17.9246 6.4467 17.9246 10.1746C17.9246 13.9025 14.9025 16.9246 11.1746 16.9246C7.4467 16.9246 4.42462 13.9025 4.42462 10.1746ZM11.1746 4.92462C8.27513 4.92462 5.92462 7.27513 5.92462 10.1746C5.92462 10.5095 5.95597 10.837 6.01588 11.1544C6.4272 10.7058 7.01807 10.4246 7.67462 10.4246C8.91726 10.4246 9.92462 11.432 9.92462 12.6746C9.92462 13.597 9.36963 14.3897 8.57538 14.7371C9.34174 15.1746 10.229 15.4246 11.1746 15.4246C13.718 15.4246 15.8389 13.6161 16.3216 11.2148C15.653 12.244 14.4933 12.9246 13.1746 12.9246C11.1036 12.9246 9.42462 11.2457 9.42462 9.17462C9.42462 7.10355 11.1036 5.42462 13.1746 5.42462C13.2611 5.42462 13.3469 5.42755 13.4319 5.43331C12.7481 5.10718 11.9827 4.92462 11.1746 4.92462ZM10.9246 9.17462C10.9246 7.93198 11.932 6.92462 13.1746 6.92462C14.4173 6.92462 15.4246 7.93198 15.4246 9.17462C15.4246 10.4173 14.4173 11.4246 13.1746 11.4246C11.932 11.4246 10.9246 10.4173 10.9246 9.17462ZM7.67462 11.9246C7.26041 11.9246 6.92462 12.2604 6.92462 12.6746C6.92462 13.0888 7.26041 13.4246 7.67462 13.4246C8.08884 13.4246 8.42462 13.0888 8.42462 12.6746C8.42462 12.2604 8.08884 11.9246 7.67462 11.9246Z" fill="#2D2D27"/>
</svg>
