<svg width="24" height="24" viewBox="0 0 24 24" fill="none" xmlns="http://www.w3.org/2000/svg">
<path fill-rule="evenodd" clip-rule="evenodd" d="M12.3854 6C10.6653 6 9.27084 7.45507 9.27084 9.25C9.27084 11.0449 10.6653 12.5 12.3854 12.5C14.1056 12.5 15.5 11.0449 15.5 9.25C15.5 7.45507 14.1056 6 12.3854 6ZM10.7083 9.25C10.7083 8.2835 11.4592 7.5 12.3854 7.5C13.3116 7.5 14.0625 8.2835 14.0625 9.25C14.0625 10.2165 13.3116 11 12.3854 11C11.4592 11 10.7083 10.2165 10.7083 9.25Z" fill="#2D2D27"/>
<path fill-rule="evenodd" clip-rule="evenodd" d="M12.3854 2C8.54819 2 5.4375 5.24594 5.4375 9.25C5.4375 10.7181 5.8557 12.0843 6.57458 13.226L4.0963 17.7051C3.95536 17.9599 3.97012 18.277 4.13405 18.5163C4.29798 18.7556 4.58081 18.8728 4.85739 18.816L7.36235 18.3022L8.18837 20.8228C8.27957 21.1011 8.51826 21.2981 8.79881 21.3266C9.07936 21.3551 9.34997 21.2099 9.49091 20.9551L11.9632 16.4868C12.1029 16.4956 12.2436 16.5 12.3854 16.5C12.5272 16.5 12.668 16.4956 12.8077 16.4868L15.2799 20.9551C15.421 21.2101 15.692 21.3554 15.9728 21.3265C16.2536 21.2977 16.4923 21.1001 16.583 20.8213L17.4048 18.2955L19.9119 18.8157C20.1887 18.8732 20.472 18.7563 20.6363 18.517C20.8007 18.2776 20.8156 17.9601 20.6746 17.7051L18.1963 13.226C18.9151 12.0843 19.3333 10.7181 19.3333 9.25C19.3333 5.24594 16.2226 2 12.3854 2ZM6.875 9.25C6.875 6.07436 9.3421 3.5 12.3854 3.5C15.4287 3.5 17.8958 6.07436 17.8958 9.25C17.8958 12.4256 15.4287 15 12.3854 15C9.3421 15 6.875 12.4256 6.875 9.25ZM10.4532 16.216C9.34825 15.8828 8.35655 15.2712 7.55245 14.4586L6.132 17.0259L7.70077 16.7041C8.05348 16.6317 8.40318 16.8424 8.51949 17.1973L9.0368 18.7759L10.4532 16.216ZM15.7318 18.7717L14.3177 16.216C15.4226 15.8828 16.4143 15.2712 17.2184 14.4586L18.6366 17.0217L17.067 16.6961C16.7133 16.6227 16.3622 16.8342 16.2463 17.1906L15.7318 18.7717Z" fill="#2D2D27"/>
</svg>
