<svg width="24" height="24" viewBox="0 0 24 24" fill="none" xmlns="http://www.w3.org/2000/svg">
<path fill-rule="evenodd" clip-rule="evenodd" d="M12.3948 5.67915C11.9981 5.44028 11.5019 5.44028 11.1052 5.67915L10.5889 5.99004C9.20765 6.82175 7.65703 7.33212 6.05183 7.48335L5.72655 7.51399C5.59813 7.52609 5.5 7.63391 5.5 7.76289V9.40678C5.5 11.9143 6.51803 14.3144 8.32088 16.0573L11.5762 19.2043C11.6731 19.2979 11.8269 19.2979 11.9238 19.2043L15.1791 16.0573C16.982 14.3144 18 11.9143 18 9.40678V7.76289C18 7.6339 17.9019 7.52609 17.7735 7.51399L17.4482 7.48335C15.843 7.33212 14.2923 6.82175 12.9111 5.99004L12.3948 5.67915ZM10.3314 4.39413C11.2041 3.86862 12.2959 3.86862 13.1686 4.39413L13.6849 4.70502C14.8734 5.42068 16.2076 5.85983 17.5889 5.98996L17.9141 6.02061C18.8131 6.1053 19.5 6.85999 19.5 7.76289V9.40678C19.5 12.3209 18.3169 15.1103 16.2217 17.1357L12.9663 20.2827C12.288 20.9385 11.212 20.9385 10.5337 20.2827L7.27832 17.1357C5.18311 15.1102 4 12.3209 4 9.40678V7.76289C4 6.85998 4.68693 6.1053 5.58585 6.02061L5.91113 5.98996C7.29235 5.85983 8.62661 5.42068 9.81511 4.70502L10.3314 4.39413Z" fill="#2D2D27"/>
</svg>
