<svg width="24" height="24" viewBox="0 0 24 24" fill="none" xmlns="http://www.w3.org/2000/svg">
<path fill-rule="evenodd" clip-rule="evenodd" d="M10.8799 3.8717C11.5543 2.70943 13.2327 2.70944 13.9071 3.8717L15.9725 7.43106C16.1629 7.75914 16.4919 7.98304 16.867 8.03968L20.2966 8.55769C21.7916 8.78349 22.316 10.6711 21.1517 11.6357L18.6528 13.706C18.3021 13.9966 18.1372 14.4549 18.2224 14.9024L18.9224 18.5783C19.1966 20.0183 17.6849 21.1371 16.3879 20.4542L12.9759 18.6576C12.6114 18.4656 12.1757 18.4656 11.8111 18.6576L8.3991 20.4541C7.10208 21.1371 5.59046 20.0183 5.86465 18.5783L6.56464 14.9024C6.64984 14.4549 6.48492 13.9966 6.13418 13.706L3.63527 11.6357C2.47099 10.6711 2.99539 8.78349 4.49039 8.55769L7.92003 8.03968C8.2951 7.98304 8.62415 7.75914 8.81452 7.43106L10.8799 3.8717ZM12.6097 4.62453C12.5134 4.45849 12.2736 4.45849 12.1773 4.62453L10.1119 8.18389C9.6931 8.90567 8.96919 9.39823 8.14405 9.52286L4.7144 10.0409C4.50083 10.0731 4.42592 10.3428 4.59224 10.4806L7.09115 12.5509C7.86278 13.1902 8.2256 14.1986 8.03816 15.183L7.33818 18.8589C7.29901 19.0646 7.51495 19.2245 7.70024 19.1269L11.1123 17.3303C11.9142 16.908 12.8728 16.908 13.6747 17.3303L17.0868 19.1269C17.2721 19.2245 17.488 19.0646 17.4488 18.8589L16.7489 15.183C16.5614 14.1986 16.9242 13.1902 17.6959 12.5509L20.1948 10.4806C20.3611 10.3428 20.2862 10.0731 20.0726 10.0409L16.643 9.52286C15.8178 9.39823 15.0939 8.90567 14.6751 8.18389L12.6097 4.62453Z" fill="#2D2D27"/>
</svg>
